<svg xmlns="http://www.w3.org/2000/svg" viewBox="0 0 24.8 21.57"><defs><style>.cls-1{fill:#fff;stroke:#fff;stroke-miterlimit:10;stroke-width:0.8px;}</style></defs><g id="레이어_2" data-name="레이어 2"><g id="레이어_1-2" data-name="레이어 1"><path class="cls-1" d="M22.77,2.38H22V.77A.37.37,0,0,0,21.67.4c-6.1,0-8.53,1.39-9.27,2-.75-.58-3.16-2-9.27-2a.37.37,0,0,0-.37.37V2.38H2A1.63,1.63,0,0,0,.4,4V19.54A1.64,1.64,0,0,0,2,21.17H17.94a.36.36,0,0,0,.36-.37.37.37,0,0,0-.36-.37H13.58a11.81,11.81,0,0,1,2.94-.93.35.35,0,0,0,.28-.42.36.36,0,0,0-.42-.29,10.6,10.6,0,0,0-3.62,1.28V16.56a5.66,5.66,0,0,0,2.79-.93l.75.76-.15.16a.34.34,0,0,0-.1.26.41.41,0,0,0,.1.26l3.47,3.46a1.53,1.53,0,0,0,2.17,0l.33-.33a1.52,1.52,0,0,0,0-2.16l-3.47-3.48a.37.37,0,0,0-.52,0l-.16.16L17.22,14a5.72,5.72,0,0,0-4.46-8.83V3c.43-.36,2.48-1.81,8.55-1.88V15.78a.36.36,0,0,0,.36.37.37.37,0,0,0,.37-.37V3.1h.73a.9.9,0,0,1,.9.91V19.54a1,1,0,0,1-.19.56.36.36,0,0,0,.06.51.35.35,0,0,0,.5-.06,1.64,1.64,0,0,0,.36-1V4A1.63,1.63,0,0,0,22.77,2.38ZM3.49,1.12C9.51,1.19,11.6,2.64,12,3V5.13a5.72,5.72,0,0,0-3.66,9.76A5.82,5.82,0,0,0,12,16.56v3.51c-1-.65-3.45-1.68-8.54-1.72ZM2,20.43a.89.89,0,0,1-.9-.89V4A.9.9,0,0,1,2,3.1h.73V18.71a.37.37,0,0,0,.37.36c4.53,0,6.93.79,8.08,1.36ZM21.6,18.56a.79.79,0,0,1,0,1.13l-.33.33a.79.79,0,0,1-1.13,0l-3.22-3.21.73-.74.58-.58h0l.16-.15Zm-5.15-4.78a.37.37,0,0,0,0,.48l1,1-.32.32-.32.33-1-1a.34.34,0,0,0-.26-.11.39.39,0,0,0-.21.06,5,5,0,0,1-6.49-.49,5,5,0,1,1,7.56-.59Z"/><path class="cls-1" d="M5.06,4.09a20.7,20.7,0,0,1,4.27.62h.1a.36.36,0,0,0,.35-.27A.35.35,0,0,0,9.52,4a21.33,21.33,0,0,0-4.41-.65.38.38,0,0,0-.39.34A.37.37,0,0,0,5.06,4.09Z"/><path class="cls-1" d="M5.06,6.64c.62,0,1.22.07,1.78.15h0a.38.38,0,0,0,.37-.32.36.36,0,0,0-.32-.4C6.35,6,5.74,5.94,5.11,5.91a.36.36,0,0,0-.39.34A.37.37,0,0,0,5.06,6.64Z"/><path class="cls-1" d="M5.06,9.18l.65,0h0a.35.35,0,0,0,.36-.34.35.35,0,0,0-.33-.38c-.21,0-.43,0-.65-.05a.37.37,0,0,0-.05.73Z"/><path class="cls-1" d="M5.06,11.72l.45,0h0a.37.37,0,0,0,.36-.35A.35.35,0,0,0,5.56,11L5.1,11a.37.37,0,0,0-.38.35A.36.36,0,0,0,5.06,11.72Z"/><path class="cls-1" d="M6.33,13.63,5.1,13.55a.36.36,0,0,0,0,.72c.41,0,.82.05,1.2.1h0A.37.37,0,0,0,6.66,14,.37.37,0,0,0,6.33,13.63Z"/><path class="cls-1" d="M9.9,8.32a3.56,3.56,0,1,0,5,0A3.55,3.55,0,0,0,9.9,8.32Zm4.53.51a2.84,2.84,0,1,1-2-.83A2.86,2.86,0,0,1,14.43,8.83Z"/><path class="cls-1" d="M19.69,3.36A21.44,21.44,0,0,0,15.28,4a.36.36,0,0,0,.09.71h.09a20.9,20.9,0,0,1,4.27-.62.37.37,0,0,0,.35-.39A.38.38,0,0,0,19.69,3.36Z"/><path class="cls-1" d="M19.69,5.91c-.63,0-1.24.08-1.82.16a.36.36,0,0,0-.32.4.37.37,0,0,0,.36.32H18c.56-.08,1.16-.12,1.77-.15a.37.37,0,1,0,0-.73Z"/><path class="cls-1" d="M19.69,8.45c-.22,0-.44,0-.65.05a.37.37,0,0,0-.34.38.37.37,0,0,0,.37.34h0l.64,0a.37.37,0,0,0,0-.73Z"/><path class="cls-1" d="M19.69,11l-.45,0a.35.35,0,0,0-.33.38.37.37,0,0,0,.35.35h0l.44,0a.36.36,0,0,0,.35-.37A.37.37,0,0,0,19.69,11Z"/></g></g></svg>