<svg xmlns="http://www.w3.org/2000/svg" viewBox="0 0 60.01 60"><defs><style>.cls-1{fill:#fff;}</style></defs><g id="레이어_2" data-name="레이어 2"><g id="격리_모드" data-name="격리 모드"><path class="cls-1" d="M28.7,18.74a.91.91,0,0,0,.92-.89V10a.91.91,0,0,0-.92-.89.9.9,0,0,0-.9.89v7.83A.9.9,0,0,0,28.7,18.74Z"/><path class="cls-1" d="M28.7,43.86a.9.9,0,0,0-.9.89v7.83a.88.88,0,0,0,.9.89.89.89,0,0,0,.92-.89V44.75A.91.91,0,0,0,28.7,43.86Z"/><path class="cls-1" d="M41.25,31.29a.92.92,0,0,0,.92.92H50a.91.91,0,0,0,.9-.92.89.89,0,0,0-.9-.89H42.17A.91.91,0,0,0,41.25,31.29Z"/><path class="cls-1" d="M16.15,31.29a.89.89,0,0,0-.9-.89H7.44a.9.9,0,0,0-.92.89.91.91,0,0,0,.92.92h7.81A.91.91,0,0,0,16.15,31.29Z"/><path class="cls-1" d="M25.41,47.42A16.42,16.42,0,0,1,12.59,34.64a.91.91,0,0,0-1.08-.73A.93.93,0,0,0,10.79,35,18.27,18.27,0,0,0,25,49.21a.68.68,0,0,0,.19,0,.91.91,0,0,0,.89-.73A.92.92,0,0,0,25.41,47.42Z"/><path class="cls-1" d="M11.5,28.75c.06,0,.12,0,.19,0a.93.93,0,0,0,.89-.73A16.4,16.4,0,0,1,25.41,15.18a.92.92,0,0,0,.71-1.08A.9.9,0,0,0,25,13.4,18.2,18.2,0,0,0,10.79,27.67.93.93,0,0,0,11.5,28.75Z"/><path class="cls-1" d="M45.9,33.91a.9.9,0,0,0-1.08.73A16.4,16.4,0,0,1,32,47.42a.92.92,0,0,0-.7,1.08.89.89,0,0,0,.89.73.58.58,0,0,0,.18,0A18.22,18.22,0,0,0,46.6,35,.91.91,0,0,0,45.9,33.91Z"/><path class="cls-1" d="M55.09,9.81a.92.92,0,0,0,.64-.27l4-4a.92.92,0,0,0,.19-1A.91.91,0,0,0,59.1,4H56V.9a.87.87,0,0,0-.56-.83.93.93,0,0,0-1,.18l-4,4a.92.92,0,0,0-.27.65V8.51L48.33,10.4a28.48,28.48,0,1,0,1.28,1.27l1.88-1.86ZM52,5.3l2.2-2.19V4.87a.91.91,0,0,0,.9.92h1.78L54.71,8H52Zm3.55,26a26.92,26.92,0,1,1-8.53-19.62L41,17.74a18.17,18.17,0,0,0-8.62-4.34.89.89,0,0,0-1.07.7.92.92,0,0,0,.7,1.08A16.46,16.46,0,0,1,39.68,19L33,25.76a7,7,0,1,0,1.29,1.29L41,20.33a16.43,16.43,0,0,1,3.86,7.72.9.9,0,0,0,.89.73l.17,0a.92.92,0,0,0,.72-1.08A18.1,18.1,0,0,0,42.26,19L48.33,13A26.8,26.8,0,0,1,55.58,31.29Zm-27.52.65a.91.91,0,0,0,1.29,0l3.59-3.59a5.1,5.1,0,0,1,.94,2.94,5.18,5.18,0,1,1-5.18-5.16,5,5,0,0,1,2.95.95l-3.59,3.59A.88.88,0,0,0,28.06,31.94Z"/></g></g></svg>