<svg xmlns="http://www.w3.org/2000/svg" viewBox="0 0 26.79 26.8"><defs><style>.cls-1{fill:#fff;stroke:#fff;stroke-miterlimit:10;stroke-width:0.8px;}</style></defs><g id="레이어_2" data-name="레이어 2"><g id="레이어_1-2" data-name="레이어 1"><path class="cls-1" d="M23.24,10.17a.4.4,0,0,0-.39-.31H17.6a10.32,10.32,0,0,0,1.13-4.13,5.34,5.34,0,0,0-10.67,0A10.32,10.32,0,0,0,9.19,9.86H3.94a.39.39,0,0,0-.38.31L.41,25.93a.37.37,0,0,0,.08.33.41.41,0,0,0,.3.14H26a.37.37,0,0,0,.3-.14.37.37,0,0,0,.08-.33Zm-20.07,6h6.92c.27,1.12,1.62,2,3.31,2s3-.84,3.29-2h2l.55,5.12H2.14ZM13.09,16a.43.43,0,0,0,.31.14.43.43,0,0,0,.3-.14c.06-.08.53-.66,1.15-1.53A1.57,1.57,0,0,1,16,15.76c0,.86-1.18,1.58-2.56,1.58s-2.56-.72-2.56-1.58a1.55,1.55,0,0,1,1.1-1.27C12.57,15.36,13,15.94,13.09,16Zm6.19,6,.37,3.55H7.14l.38-3.55Zm.16-5.9h4.19l.66,3.28h-4.5Zm4-.78H19.36l-.5-4.74h3.67Zm-5.41-4.74.5,4.74H16.69a2.35,2.35,0,0,0-1.38-1.56,31,31,0,0,0,1.91-3.18ZM13.4,1.19a4.55,4.55,0,0,1,4.54,4.54c0,3.2-3.48,8-4.54,9.4-1.07-1.4-4.55-6.2-4.55-9.4A4.55,4.55,0,0,1,13.4,1.19ZM11.48,13.82a2.42,2.42,0,0,0-1.39,1.56H8.23l.5-4.74h.84A33,33,0,0,0,11.48,13.82ZM4.27,10.64H7.94l-.51,4.74H3.32ZM2,22.06H6.72l-.37,3.55H1.27Zm18.47,3.55-.58-5.38h4.57l1.08,5.38Z"/><path class="cls-1" d="M16.19,5.79A2.8,2.8,0,1,0,13.4,8.58,2.81,2.81,0,0,0,16.19,5.79Zm-2.79,2a2,2,0,1,1,2-2A2,2,0,0,1,13.4,7.8Z"/></g></g></svg>