<svg xmlns="http://www.w3.org/2000/svg" viewBox="0 0 57.78 50"><defs><style>.cls-1{fill:#fff;}</style></defs><g id="레이어_2" data-name="레이어 2"><g id="격리_모드" data-name="격리 모드"><path class="cls-1" d="M53.86,4.76H52.09V.88A.87.87,0,0,0,51.21,0C36.51,0,30.68,3.35,28.89,4.73,27.09,3.35,21.27,0,6.56,0a.87.87,0,0,0-.87.88V4.76H3.93A3.93,3.93,0,0,0,0,8.68v37.4A3.93,3.93,0,0,0,3.93,50H42.22a.87.87,0,0,0,.88-.88.9.9,0,0,0-.88-.89H31.74A27.64,27.64,0,0,1,38.8,46a.88.88,0,0,0-.34-1.72,25.63,25.63,0,0,0-8.69,3.07V38.9a13.57,13.57,0,0,0,6.71-2.23l1.81,1.82-.36.39a.84.84,0,0,0-.26.62.92.92,0,0,0,.26.62l8.36,8.35a3.61,3.61,0,0,0,2.59,1.09,3.68,3.68,0,0,0,2.62-1.09l.79-.81a3.67,3.67,0,0,0,0-5.2L43.93,34.1a.88.88,0,0,0-1.24,0l-.38.39-1.82-1.85A13.75,13.75,0,0,0,29.77,11.38V6.26c1-.86,5.95-4.36,20.57-4.52V37a.88.88,0,1,0,1.75,0V6.5h1.77A2.18,2.18,0,0,1,56,8.68v37.4a2.21,2.21,0,0,1-.47,1.35.86.86,0,0,0,.15,1.22.87.87,0,0,0,1.22-.13,4,4,0,0,0,.85-2.44V8.68A3.93,3.93,0,0,0,53.86,4.76Zm-46.41-3C21.92,1.9,27,5.4,28,6.29v5.09A13.79,13.79,0,0,0,28,38.9v8.45c-2.45-1.56-8.31-4-20.55-4.13ZM3.93,48.23a2.16,2.16,0,0,1-2.17-2.15V8.68A2.18,2.18,0,0,1,3.93,6.5H5.69V44.08a.87.87,0,0,0,.87.88c10.93,0,16.7,1.9,19.46,3.27Zm47.12-4.52a1.92,1.92,0,0,1,0,2.73l-.8.81a1.93,1.93,0,0,1-2.72,0L39.78,39.5l1.76-1.77,1.39-1.4h0l.38-.36ZM38.64,32.23a.86.86,0,0,0,.1,1.14l2.33,2.34-.76.78-.77.78-2.35-2.34a.83.83,0,0,0-.61-.26,1,1,0,0,0-.52.15A12,12,0,0,1,20.44,16.61a12.07,12.07,0,0,1,17,0A12,12,0,0,1,38.64,32.23Z"/><path class="cls-1" d="M11.23,8.89a50.58,50.58,0,0,1,10.28,1.48.86.86,0,0,0,.23,0,.88.88,0,0,0,.85-.64A.89.89,0,0,0,22,8.68,53.83,53.83,0,0,0,11.33,7.12a.9.9,0,0,0-.92.83A.89.89,0,0,0,11.23,8.89Z"/><path class="cls-1" d="M11.23,15c1.49.08,2.92.18,4.27.36h.11a.9.9,0,0,0,.88-.77.89.89,0,0,0-.78-1c-1.38-.18-2.86-.31-4.38-.38a.86.86,0,0,0-.92.83A.89.89,0,0,0,11.23,15Z"/><path class="cls-1" d="M11.23,21.13c.53,0,1,.08,1.54.1h.06a.86.86,0,0,0,.88-.8.87.87,0,0,0-.81-.94c-.5,0-1-.08-1.57-.1a.87.87,0,0,0-.1,1.74Z"/><path class="cls-1" d="M11.23,27.26l1.06.08h.07a.88.88,0,0,0,.87-.83.85.85,0,0,0-.81-.91l-1.1-.08a.87.87,0,0,0-.09,1.74Z"/><path class="cls-1" d="M14.28,31.86c-.95-.08-1.95-.16-3-.21a.85.85,0,0,0-.91.83.86.86,0,0,0,.82.91c1,.06,2,.13,2.87.24h.09a.89.89,0,0,0,.09-1.77Z"/><path class="cls-1" d="M22.88,19.07a8.58,8.58,0,1,0,12.14,0A8.56,8.56,0,0,0,22.88,19.07ZM33.77,20.3a6.82,6.82,0,1,1-4.82-2A6.83,6.83,0,0,1,33.77,20.3Z"/><path class="cls-1" d="M46.46,7.12A53.94,53.94,0,0,0,35.82,8.68a.87.87,0,0,0,.23,1.71.86.86,0,0,0,.22,0A50.69,50.69,0,0,1,46.55,8.89a.89.89,0,0,0-.09-1.77Z"/><path class="cls-1" d="M46.46,13.26c-1.53.07-3,.2-4.4.38a.87.87,0,0,0-.76,1,.88.88,0,0,0,.87.77h.1c1.35-.18,2.79-.28,4.28-.36a.9.9,0,0,0,.83-.93A.87.87,0,0,0,46.46,13.26Z"/><path class="cls-1" d="M46.46,19.39c-.55,0-1.07.05-1.59.1a.9.9,0,0,0-.81.94.88.88,0,0,0,.89.8H45c.5,0,1-.08,1.55-.1a.87.87,0,0,0-.1-1.74Z"/><path class="cls-1" d="M46.46,25.52l-1.1.08a.84.84,0,0,0-.8.91.87.87,0,0,0,.85.83h.07l1.07-.08a.87.87,0,0,0,.83-.91A.89.89,0,0,0,46.46,25.52Z"/></g></g></svg>