<svg xmlns="http://www.w3.org/2000/svg" viewBox="0 0 26.98 26.8"><defs><style>.cls-1{fill:#fff;stroke:#fff;stroke-miterlimit:10;stroke-width:0.8px;}</style></defs><g id="레이어_2" data-name="레이어 2"><g id="레이어_1-2" data-name="레이어 1"><path class="cls-1" d="M19.6,4.89a.08.08,0,0,1,0,0,.5.5,0,0,0-.08-.12L15.29.52a.21.21,0,0,0-.12-.08l0,0L15,.4H3.28a.39.39,0,0,0-.4.39V2.87H.79a.41.41,0,0,0-.39.4V26a.41.41,0,0,0,.39.4h16a.41.41,0,0,0,.4-.4V23.9h2.09a.39.39,0,0,0,.4-.39V5a0,0,0,0,0,0,0A.3.3,0,0,0,19.6,4.89Zm-1.33-.27H15.41V1.75Zm-1.93,21H1.19V3.67H2.88V23.51a.39.39,0,0,0,.4.39H16.34ZM3.68,23.11V1.19H14.61V5a.41.41,0,0,0,.4.4h3.82V23.11Z"/><path class="cls-1" d="M25.76,3.07a.4.4,0,0,0-.38-.3h-.31C24.78,1.08,24.42.4,23.84.4s-.95.68-1.24,2.37h-.3a.4.4,0,0,0-.39.3,44.56,44.56,0,0,0-.82,9.51,58.26,58.26,0,0,0,1.75,13,1,1,0,0,0,1,.78h0a1,1,0,0,0,1-.78,58.26,58.26,0,0,0,1.75-13A44.56,44.56,0,0,0,25.76,3.07Zm0,9.51a48.11,48.11,0,0,1-.63,7.4H22.52a48.11,48.11,0,0,1-.63-7.4,57.58,57.58,0,0,1,.32-6.41h3.26A60.1,60.1,0,0,1,25.79,12.58Zm-1.07,9.87H23c-.1-.52-.21-1.09-.31-1.68H25C24.93,21.36,24.82,21.93,24.72,22.45ZM22.3,5.37c.1-.66.2-1.27.31-1.81h2.45c.12.54.22,1.15.31,1.81Zm1.54-4.09a5.36,5.36,0,0,1,.43,1.49h-.86A5,5,0,0,1,23.84,1.28Zm0,24.32a.22.22,0,0,1-.23-.17c-.14-.61-.31-1.35-.49-2.19h1.44c-.18.84-.35,1.58-.5,2.19A.21.21,0,0,1,23.84,25.6Z"/><path class="cls-1" d="M23.84,18.56a.39.39,0,0,0,.39-.4V8a.38.38,0,0,0-.39-.39.39.39,0,0,0-.4.39V18.16A.4.4,0,0,0,23.84,18.56Z"/><path class="cls-1" d="M8,5.81A.39.39,0,0,0,7.51,6L6.65,7.73,6,7a.4.4,0,0,0-.57,0,.39.39,0,0,0,0,.55l1.1,1.13a.44.44,0,0,0,.28.12h.06a.43.43,0,0,0,.3-.22l1.1-2.25A.38.38,0,0,0,8,5.81Z"/><path class="cls-1" d="M8,9.77a.4.4,0,0,0-.53.19l-.86,1.73L6,11a.42.42,0,0,0-.57,0,.4.4,0,0,0,0,.56l1.1,1.12a.41.41,0,0,0,.28.13l.06,0a.39.39,0,0,0,.3-.21l1.1-2.25A.39.39,0,0,0,8,9.77Z"/><path class="cls-1" d="M8,13.74a.4.4,0,0,0-.53.19l-.86,1.73L6,14.94a.42.42,0,0,0-.57,0,.4.4,0,0,0,0,.56l1.1,1.13a.43.43,0,0,0,.28.11h.06a.39.39,0,0,0,.3-.21l1.1-2.25A.39.39,0,0,0,8,13.74Z"/><path class="cls-1" d="M16.33,6.89H10a.39.39,0,0,0-.4.4.39.39,0,0,0,.4.39h6.35a.39.39,0,0,0,.39-.39A.4.4,0,0,0,16.33,6.89Z"/><path class="cls-1" d="M10,11.65h4a.4.4,0,1,0,0-.79H10a.4.4,0,1,0,0,.79Z"/><path class="cls-1" d="M16.33,14.82H10a.39.39,0,0,0-.4.4.39.39,0,0,0,.4.39h6.35a.39.39,0,0,0,.39-.39A.4.4,0,0,0,16.33,14.82Z"/><path class="cls-1" d="M15.14,18.79H10a.39.39,0,0,0-.4.4.39.39,0,0,0,.4.39h5.16a.39.39,0,0,0,.39-.39A.4.4,0,0,0,15.14,18.79Z"/><path class="cls-1" d="M7.07,18.79H6.46a.4.4,0,0,0-.4.4.39.39,0,0,0,.4.39h.61a.38.38,0,0,0,.39-.39A.39.39,0,0,0,7.07,18.79Z"/></g></g></svg>