<svg xmlns="http://www.w3.org/2000/svg" viewBox="0 0 57.98 58"><defs><style>.cls-1{fill:#fff;}</style></defs><g id="레이어_2" data-name="레이어 2"><g id="격리_모드" data-name="격리 모드"><path class="cls-1" d="M50.94,21.8a.86.86,0,0,0-.86-.7H38.38a23.1,23.1,0,0,0,2.52-9.21,11.91,11.91,0,0,0-23.81,0A23.07,23.07,0,0,0,19.6,21.1H7.91a.85.85,0,0,0-.86.7L0,57a.9.9,0,0,0,.18.73A.86.86,0,0,0,.88,58H57.11a.81.81,0,0,0,.67-.31A.91.91,0,0,0,58,57ZM6.17,35.16H21.62c.59,2.5,3.62,4.38,7.37,4.38s6.78-1.88,7.36-4.38h4.36l1.22,11.42h-38Zm22.14-.32a.88.88,0,0,0,1.36,0c.14-.18,1.17-1.46,2.57-3.42,1.47.63,2.46,1.7,2.46,2.85,0,1.9-2.62,3.52-5.71,3.52s-5.71-1.62-5.71-3.52c0-1.15,1-2.22,2.47-2.85C27.14,33.38,28.17,34.66,28.31,34.84Zm13.8,13.48.83,7.91H15l.83-7.91Zm.37-13.16h9.35l1.45,7.32h-10Zm9-1.75H42.29L41.17,22.84h8.19ZM39.4,22.84l1.12,10.57H36.35a5.31,5.31,0,0,0-3.09-3.47,68.26,68.26,0,0,0,4.26-7.1ZM29,1.77A10.14,10.14,0,0,1,39.14,11.89c0,7.15-7.78,17.84-10.15,21-2.37-3.13-10.14-13.82-10.14-21A10.14,10.14,0,0,1,29,1.77ZM24.71,29.94a5.39,5.39,0,0,0-3.09,3.47H17.46l1.11-10.57h1.89A74,74,0,0,0,24.71,29.94ZM8.62,22.84h8.19L15.69,33.41H6.51ZM3.53,48.32H14.1l-.83,7.91H2Zm41.19,7.91-1.28-12h10.2l2.4,12Z"/><path class="cls-1" d="M35.23,12A6.24,6.24,0,1,0,29,18.26,6.26,6.26,0,0,0,35.23,12ZM29,16.51A4.5,4.5,0,1,1,33.48,12,4.5,4.5,0,0,1,29,16.51Z"/></g></g></svg>