<svg xmlns="http://www.w3.org/2000/svg" viewBox="0 0 55.47 52"><defs><style>.cls-1{fill:#fff;}</style></defs><g id="레이어_2" data-name="레이어 2"><g id="격리_모드" data-name="격리 모드"><path class="cls-1" d="M49.78,27.7,51,26.46A15.19,15.19,0,0,0,51,5a15.74,15.74,0,0,0-21.32-.85,1.17,1.17,0,0,0-.26.17L28.8,5s0,0,0,0l-.87.87L26.68,4.6a15.72,15.72,0,0,0-22.22,0h0a15.25,15.25,0,0,0,0,21.51L6.05,27.7l-.45.45a4.48,4.48,0,0,0-1.29,3.62,4.53,4.53,0,0,0,2,3.32,4.48,4.48,0,0,0,2,.72,4.58,4.58,0,0,0-.6,5.71,4.47,4.47,0,0,0,3.31,2,5.72,5.72,0,0,0,1.17,0,4.34,4.34,0,0,0,1.43,4.06,4.62,4.62,0,0,0,5.58.3,4.39,4.39,0,0,0,1.08,2.7A4.49,4.49,0,0,0,23.5,52h.11a4.47,4.47,0,0,0,3.18-1.3L28,49.53a4.73,4.73,0,0,0,2.8,1,4.35,4.35,0,0,0,2.44-.75,4.49,4.49,0,0,0,2-3.26,4.49,4.49,0,0,0,7.68-2.72,4,4,0,0,0,0-1.15,7.77,7.77,0,0,0,.85.05,4.35,4.35,0,0,0,3.22-1.5,4.56,4.56,0,0,0,.35-5.54,4.36,4.36,0,0,0,3-1.47,4.58,4.58,0,0,0-.31-6.31Zm0-21.55a13.53,13.53,0,0,1,0,19.13L48.6,26.53,35,12.91l1-1a.81.81,0,0,0,0-1.18.85.85,0,0,0-1.18,0l-7.46,7.46a3.29,3.29,0,0,1-2.67,1A3.33,3.33,0,0,1,22.2,17.7a3.44,3.44,0,0,1,.54-4.29L30,6.15A14.05,14.05,0,0,1,49.83,6.15ZM7.22,33.69a2.82,2.82,0,0,1-.43-4.34l.46-.45,4,4-.39.38A2.94,2.94,0,0,1,7.22,33.69ZM13.44,41a2.88,2.88,0,0,1-2.27.8A2.8,2.8,0,0,1,9.1,40.57a2.9,2.9,0,0,1,.46-3.64L12,34.46a.11.11,0,0,0,0-.05l.36-.35,4,4Zm7.11,3.22L18.75,46a3,3,0,0,1-4,.25,2.83,2.83,0,0,1-.11-4.09l3-3,4,4-1,1S20.56,44.22,20.55,44.24Zm3,6.09a2.84,2.84,0,0,1-2-.93,3,3,0,0,1,.22-4l1-1,4,4L25.61,49.5A2.81,2.81,0,0,1,23.54,50.33ZM49,33a2.81,2.81,0,0,1-2,1,2.88,2.88,0,0,1-2.07-.82s0,0,0,0l-11-10.95a.84.84,0,0,0-1.19,0,.85.85,0,0,0,0,1.2l11,11h0L45.39,36a3,3,0,0,1,.25,4,2.72,2.72,0,0,1-2,.92,2.8,2.8,0,0,1-2.06-.79v0h0L28.75,27.35a.84.84,0,0,0-1.18,1.2l12.8,12.8h0a2.87,2.87,0,0,1,.8,2.27,2.77,2.77,0,0,1-1.25,2.07,3,3,0,0,1-3.63-.45L34,42.92a.29.29,0,0,0-.08-.1h0L23.59,32.54a.81.81,0,0,0-1.19,0,.85.85,0,0,0,0,1.18L32.7,44h0a2.91,2.91,0,0,1,.81,2.27,2.87,2.87,0,0,1-1.26,2.07,3,3,0,0,1-3.63-.45l-23-23a13.54,13.54,0,0,1,0-19.11h0a14,14,0,0,1,19.86,0l1.23,1.25-5.18,5.16a5.08,5.08,0,0,0-.74,6.44,5,5,0,0,0,3.69,2.19,2.48,2.48,0,0,0,.47,0,5,5,0,0,0,3.55-1.48l5.28-5.28L48.73,29A3,3,0,0,1,49,33Z"/></g></g></svg>