<svg xmlns="http://www.w3.org/2000/svg" viewBox="0 0 26.8 26.8"><defs><style>.cls-1{fill:#fff;stroke:#fff;stroke-miterlimit:10;stroke-width:0.8px;}</style></defs><g id="레이어_2" data-name="레이어 2"><g id="격리_모드" data-name="격리 모드"><path class="cls-1" d="M12.83,8.52a.39.39,0,0,0,.4-.39V4.74a.4.4,0,0,0-.79,0V8.13A.4.4,0,0,0,12.83,8.52Z"/><path class="cls-1" d="M12.83,19.4a.4.4,0,0,0-.39.39v3.39a.4.4,0,0,0,.79,0V19.79A.39.39,0,0,0,12.83,19.4Z"/><path class="cls-1" d="M18.27,14a.39.39,0,0,0,.4.39h3.38a.39.39,0,0,0,.4-.39.4.4,0,0,0-.4-.39H18.67A.4.4,0,0,0,18.27,14Z"/><path class="cls-1" d="M7.4,14A.4.4,0,0,0,7,13.57H3.62a.4.4,0,0,0-.4.39.39.39,0,0,0,.4.39H7A.39.39,0,0,0,7.4,14Z"/><path class="cls-1" d="M11.41,21a7.14,7.14,0,0,1-5.56-5.54.38.38,0,0,0-.46-.32.4.4,0,0,0-.31.47,7.88,7.88,0,0,0,6.17,6.16h.08a.41.41,0,0,0,.39-.31A.4.4,0,0,0,11.41,21Z"/><path class="cls-1" d="M5.38,12.86h.08a.4.4,0,0,0,.39-.32A7.1,7.1,0,0,1,11.41,7a.41.41,0,0,0,.31-.47.4.4,0,0,0-.47-.31,7.88,7.88,0,0,0-6.17,6.19A.4.4,0,0,0,5.38,12.86Z"/><path class="cls-1" d="M20.29,15.09a.39.39,0,0,0-.47.32A7.12,7.12,0,0,1,14.26,21a.39.39,0,0,0,.08.78h.08a7.88,7.88,0,0,0,6.17-6.16A.4.4,0,0,0,20.29,15.09Z"/><path class="cls-1" d="M24.27,4.65a.38.38,0,0,0,.27-.12l1.75-1.74a.4.4,0,0,0,.08-.43A.41.41,0,0,0,26,2.12H24.68V.79A.39.39,0,0,0,24,.51L22.27,2.25a.39.39,0,0,0-.12.28V4.09l-.81.82a12.18,12.18,0,1,0,.56.55l.81-.81ZM22.94,2.7l.95-1v.76a.4.4,0,0,0,.4.4h.77l-.95.94H22.94ZM24.48,14a11.68,11.68,0,1,1-3.7-8.5L18.15,8.09A7.89,7.89,0,0,0,14.42,6.2a.39.39,0,0,0-.46.31.4.4,0,0,0,.3.47,7,7,0,0,1,3.33,1.67l-2.91,2.91a3,3,0,1,0,.56.56l2.91-2.91a7.07,7.07,0,0,1,1.68,3.34.39.39,0,0,0,.38.32h.08a.41.41,0,0,0,.31-.47,7.93,7.93,0,0,0-1.89-3.74L21.34,6A11.57,11.57,0,0,1,24.48,14Zm-11.92.28a.38.38,0,0,0,.27.11.36.36,0,0,0,.28-.11l1.56-1.56A2.19,2.19,0,0,1,15.08,14a2.24,2.24,0,1,1-2.25-2.24,2.17,2.17,0,0,1,1.28.41l-1.55,1.56A.38.38,0,0,0,12.56,14.24Z"/></g></g></svg>