<svg xmlns="http://www.w3.org/2000/svg" viewBox="0 0 54.38 54"><defs><style>.cls-1{fill:#fff;}</style></defs><g id="레이어_2" data-name="레이어 2"><g id="격리_모드" data-name="격리 모드"><path class="cls-1" d="M39.87,9.32a.64.64,0,0,0,0-.07A.89.89,0,0,0,39.69,9L30.92.25a.39.39,0,0,0-.24-.17s-.05,0-.08,0a.73.73,0,0,0-.2,0H6a.8.8,0,0,0-.82.81V5.14H.82A.84.84,0,0,0,0,6v47.2A.84.84,0,0,0,.82,54H33.94a.83.83,0,0,0,.82-.83V48.82H39.1a.83.83,0,0,0,.84-.81V9.59a.08.08,0,0,0,0-.05A.65.65,0,0,0,39.87,9.32Zm-2.76-.57H31.17V2.81Zm-4,43.59H1.64V6.8H5.16V48a.82.82,0,0,0,.82.81H33.11ZM6.81,47.18V1.64H29.52v8a.83.83,0,0,0,.82.83h8V47.18Z"/><path class="cls-1" d="M52.68,5.55a.83.83,0,0,0-.8-.63h-.63C50.63,1.42,49.88,0,48.68,0s-2,1.42-2.57,4.92h-.63a.83.83,0,0,0-.8.63C43.58,10.17,43,17.17,43,25.29a120.94,120.94,0,0,0,3.63,27.09A2.13,2.13,0,0,0,48.68,54h0a2.11,2.11,0,0,0,2.06-1.62c1.35-5.52,3.64-16.38,3.64-27.09C54.38,17.17,53.78,10.17,52.68,5.55Zm0,19.74a101.06,101.06,0,0,1-1.31,15.38H45.94a99.8,99.8,0,0,1-1.31-15.38A118.17,118.17,0,0,1,45.29,12h6.78A123.09,123.09,0,0,1,52.73,25.29ZM50.5,45.81H46.86c-.22-1.1-.44-2.28-.65-3.5h4.94C50.94,43.53,50.72,44.71,50.5,45.81Zm-5-35.49c.19-1.37.4-2.64.64-3.76h5.09c.25,1.12.45,2.39.65,3.76Zm3.19-8.48a10.61,10.61,0,0,1,.89,3.08H47.79A10.27,10.27,0,0,1,48.68,1.84Zm0,50.5a.46.46,0,0,1-.47-.35c-.3-1.27-.66-2.81-1-4.54h3c-.37,1.73-.72,3.27-1,4.54A.44.44,0,0,1,48.68,52.34Z"/><path class="cls-1" d="M48.68,37.71a.83.83,0,0,0,.82-.83V15.8a.82.82,0,0,0-1.64,0V36.88A.83.83,0,0,0,48.68,37.71Z"/><path class="cls-1" d="M15.86,11.23a.82.82,0,0,0-1.1.39L13,15.21l-1.46-1.49a.85.85,0,0,0-1.18,0,.81.81,0,0,0,0,1.15l2.29,2.35a.92.92,0,0,0,.59.24.25.25,0,0,0,.12,0A.81.81,0,0,0,14,17l2.29-4.67A.81.81,0,0,0,15.86,11.23Z"/><path class="cls-1" d="M15.86,19.47a.82.82,0,0,0-1.1.39L13,23.46,11.52,22a.85.85,0,0,0-1.18,0,.81.81,0,0,0,0,1.15l2.29,2.33a.8.8,0,0,0,.59.26l.12,0a.81.81,0,0,0,.61-.44l2.29-4.67A.8.8,0,0,0,15.86,19.47Z"/><path class="cls-1" d="M15.86,27.71a.82.82,0,0,0-1.1.39L13,31.7l-1.46-1.5a.86.86,0,0,0-1.18,0,.81.81,0,0,0,0,1.15l2.29,2.35a.88.88,0,0,0,.59.25.18.18,0,0,0,.12,0,.79.79,0,0,0,.61-.44l2.29-4.67A.81.81,0,0,0,15.86,27.71Z"/><path class="cls-1" d="M33.08,13.48H19.89a.82.82,0,0,0-.83.83.81.81,0,0,0,.83.81H33.08a.81.81,0,0,0,.82-.81A.82.82,0,0,0,33.08,13.48Z"/><path class="cls-1" d="M19.89,23.36h8.23a.82.82,0,1,0,0-1.64H19.89a.82.82,0,1,0,0,1.64Z"/><path class="cls-1" d="M33.08,30H19.89a.82.82,0,1,0,0,1.64H33.08a.82.82,0,1,0,0-1.64Z"/><path class="cls-1" d="M30.6,38.2H19.89a.82.82,0,1,0,0,1.64H30.6a.82.82,0,1,0,0-1.64Z"/><path class="cls-1" d="M13.85,38.2H12.58a.82.82,0,1,0,0,1.64h1.27a.82.82,0,1,0,0-1.64Z"/></g></g></svg>