<svg xmlns="http://www.w3.org/2000/svg" viewBox="0 0 28.54 26.8"><defs><style>.cls-1{fill:#fff;stroke:#fff;stroke-miterlimit:10;stroke-width:0.8px;}</style></defs><g id="레이어_2" data-name="레이어 2"><g id="레이어_1-2" data-name="레이어 1"><path class="cls-1" d="M25.29,14.25l.63-.62a7.6,7.6,0,0,0,0-10.74,7.87,7.87,0,0,0-10.66-.43.43.43,0,0,0-.13.09l-.33.33a0,0,0,0,0,0,0l-.43.43-.62-.62a7.85,7.85,0,0,0-11.11,0h0a7.62,7.62,0,0,0,0,10.75l.81.8-.23.23a2.22,2.22,0,0,0-.65,1.8,2.28,2.28,0,0,0,1,1.66,2.2,2.2,0,0,0,1,.36A2.25,2.25,0,0,0,5.9,22.15a2.91,2.91,0,0,0,.59,0,2,2,0,0,0,0,.42,2.27,2.27,0,0,0,.75,1.62,2.31,2.31,0,0,0,2.78.15,2.19,2.19,0,0,0,.55,1.34,2.16,2.16,0,0,0,1.61.74h.06a2.21,2.21,0,0,0,1.59-.65l.58-.59a2.32,2.32,0,0,0,1.41.49A2.13,2.13,0,0,0,17,25.28a2.27,2.27,0,0,0,1-1.64,2.28,2.28,0,0,0,2.85.3,2.24,2.24,0,0,0,1-1.66,2.16,2.16,0,0,0,0-.57l.43,0a2.16,2.16,0,0,0,1.6-.74A2.27,2.27,0,0,0,24,18.22a2.23,2.23,0,0,0,1.5-.74,2.29,2.29,0,0,0-.16-3.15Zm0-10.78a6.79,6.79,0,0,1,0,9.57l-.62.62L17.9,6.85l.48-.48a.4.4,0,0,0,0-.59.42.42,0,0,0-.59,0L14.06,9.51a1.67,1.67,0,0,1-2.56-.26,1.73,1.73,0,0,1,.27-2.15L15.4,3.47A7,7,0,0,1,25.32,3.47ZM4,17.24a1.4,1.4,0,0,1-.62-1,1.44,1.44,0,0,1,.4-1.14L4,14.85l2,2L5.82,17A1.45,1.45,0,0,1,4,17.24Zm3.11,3.67a1.44,1.44,0,0,1-1.14.4,1.41,1.41,0,0,1-1-.62,1.45,1.45,0,0,1,.23-1.82l1.23-1.24,0,0,.18-.18,2,2Zm3.55,1.61-.89.9a1.49,1.49,0,0,1-2,.12,1.36,1.36,0,0,1-.47-1,1.39,1.39,0,0,1,.41-1L9.19,20l2,2-.49.49S10.68,22.51,10.67,22.52Zm1.5,3a1.39,1.39,0,0,1-1-.46,1.47,1.47,0,0,1,.11-2l.51-.5,2,2-.57.56A1.33,1.33,0,0,1,12.17,25.56Zm12.72-8.64a1.36,1.36,0,0,1-1,.47,1.4,1.4,0,0,1-1-.41,0,0,0,0,0,0,0l-5.48-5.48a.42.42,0,0,0-.59,0,.42.42,0,0,0,0,.6l5.48,5.48h0l.85.85a1.49,1.49,0,0,1,.12,2,1.39,1.39,0,0,1-1,.46,1.44,1.44,0,0,1-1-.4v0h0l-6.4-6.39a.42.42,0,0,0-.6,0,.42.42,0,0,0,0,.59l6.4,6.4h0a1.44,1.44,0,0,1,.4,1.14,1.38,1.38,0,0,1-.63,1A1.45,1.45,0,0,1,18.55,23l-1.17-1.16a.11.11,0,0,0,0-.05h0l-5.15-5.14a.41.41,0,0,0-.59,0,.42.42,0,0,0-.12.3.42.42,0,0,0,.12.29l5.15,5.15h0a1.4,1.4,0,0,1-.22,2.17,1.48,1.48,0,0,1-1.82-.23L3.21,12.85a6.77,6.77,0,0,1,0-9.55h0a7,7,0,0,1,9.93,0l.62.62-2.6,2.59a2.55,2.55,0,0,0-.37,3.21,2.49,2.49,0,0,0,1.85,1.1h.24a2.52,2.52,0,0,0,1.77-.73L17.3,7.45l7.47,7.46A1.49,1.49,0,0,1,24.89,16.92Z"/></g></g></svg>