<svg xmlns="http://www.w3.org/2000/svg" viewBox="0 0 17.81 17.2"><defs><style>.cls-1{fill:#19a8e5;stroke:#19a8e5;}.cls-1,.cls-2{stroke-miterlimit:10;stroke-width:1.2px;}.cls-2{fill:#222;stroke:#222;}</style></defs><g id="레이어_2" data-name="레이어 2"><g id="레이어_1-2" data-name="레이어 1"><path class="cls-1" d="M6.81,11A6.18,6.18,0,0,0,.66,16.6h.58a5.59,5.59,0,0,1,11.13,0H13A6.19,6.19,0,0,0,6.81,11Z"/><path class="cls-1" d="M11.3,5.09A4.5,4.5,0,1,0,6.81,9.58,4.5,4.5,0,0,0,11.3,5.09ZM6.81,9a3.92,3.92,0,1,1,3.91-3.92A3.93,3.93,0,0,1,6.81,9Z"/><path class="cls-2" d="M14.89,5.86a3.48,3.48,0,0,1-.66,2.59A3.44,3.44,0,0,1,12.4,9.71v.6a4.08,4.08,0,0,0,1.14-7.44l-.17.58A3.49,3.49,0,0,1,14.89,5.86Z"/><path class="cls-2" d="M14,11.77l-.24.53a5.63,5.63,0,0,1,2.78,4.3h.58A6.19,6.19,0,0,0,14,11.77Z"/></g></g></svg>